<?xml version="1.0" encoding="utf-8"?>
<!-- Generator: Adobe Illustrator 23.0.6, SVG Export Plug-In . SVG Version: 6.00 Build 0)  -->
<svg version="1.1" id="Layer_1" xmlns="http://www.w3.org/2000/svg" xmlns:xlink="http://www.w3.org/1999/xlink" x="0px" y="0px"
	 viewBox="0 0 1000 200" style="enable-background:new 0 0 1000 200;" xml:space="preserve">
<path d="M0,0v52.8c6.7-6.3,16.6-11,30-7.9c33.5,8.7,39.2,47.2,39.2,47.2s7.4-5.5,15.2-1.6c7.4,3.9,9.9,20.5,9.9,20.5
	s0.7-3.9,4.9-5.5c4.2-1.6,6,1.6,6,1.6s0-16.5,6.7-22s12.7,5.5,12.7,5.5s2.5-22.8,10.9-32.3s16.6,0,16.6,0s4.2-3.9,8.5,0
	c4.2,3.9,6,11,6,11h4.9c2.5,0,4.2,5.5,4.2,5.5s2.8-14.2,14.1-17.3c12.3-3.1,18.7,18.9,21.9,34.6c1.4-3.1,3.5-5.5,6.3-7.1
	c9.9-5.5,14.1,5.5,14.1,5.5s6-39.4,39.2-47.2c33.5-8.7,43.4,30.7,43.4,30.7s4.2-37.8,20.1-44.9c15.9-7.1,24,14.2,24,14.2
	s2.1-4.7,5.3-7.1c3.2-1.6,6.7-1.6,6.7-1.6s18.3-50.4,44.4-26c25.7,24.4,16.6,70.9,16.6,70.9s6.7-7.1,14.1,0s9.9,18.9,9.9,18.9
	s6.7-9.4,15.9-9.4c9.2,0,15.2,9.4,15.2,9.4s0.7-7.9,4.9-13.4s7.4-5.5,7.4-5.5s-1.8-24.4,7.4-43.3c9.2-18.9,20.1-11,20.1-11
	s5.3-18.1,14.8-8.7s6,40.9,6,40.9s1.1-0.8,4.6,3.9c1.8,3.1,2.8,6.3,3.2,8.7c1.8-11,8.5-45.7,29.6-31.5c25,16.5,12.3,70.1,12.3,70.1
	s2.8-3.1,7.1,0c4.2,3.1,3.9,8.7,3.9,8.7s3.9-8.7,8.1-8.7c4.2,0,7.4,3.9,7.4,3.9s6.7-28.3,21.9-9.4c15.2,18.9,6.7,50.4,6.7,50.4
	s9.2-18.9,26.1,0c12,13.4,13.8,38.6,13.8,38.6s11.6-54.3,36.7-62.2c25-7.9,40.6,20.5,40.6,20.5s2.8,0,4.2,1.6
	c1.4,1.6,3.2,7.1,3.2,7.1s15.5-24.4,29.3,1.6c6.7,13.4,5.3,39.4,5.3,39.4s1.1-8.7,5.6-11s8.1,1.6,8.1,1.6s-0.4-9.4,1.8-15
	c2.1-5.5,6.7-7.1,6.7-7.1S816.9,95.3,849,63c19.8-19.7,32.5,7.1,32.5,7.1s17.6-48.8,56.1-48.8c38.4,0,56.8,63.8,56.8,63.8
	s2.5-1.6,5.6-3.1V0H0z"/>
</svg>
