<?xml version="1.0" encoding="utf-8"?>
<!-- Generator: Adobe Illustrator 23.0.6, SVG Export Plug-In . SVG Version: 6.00 Build 0)  -->
<svg version="1.1" id="Layer_1" xmlns="http://www.w3.org/2000/svg" xmlns:xlink="http://www.w3.org/1999/xlink" x="0px" y="0px"
	 viewBox="0 0 1000 200" style="enable-background:new 0 0 1000 200;" xml:space="preserve">
<path d="M937.6,18.2c-38.4,0-56.1,46.2-56.1,46.2s-12.7-26.1-32.5-6.7c-32.1,30.5-15.5,99.8-15.5,99.8s-4.2,1.5-6.7,6.7
	c-2.1,5.2-1.8,14.2-1.8,14.2s-3.5-3.7-8.1-1.5c-4.6,2.2-5.6,10.4-5.6,10.4s1.4-25.3-5.3-37.2c-13.8-25.3-29.3-1.5-29.3-1.5
	s-2.1-5.2-3.2-6.7c-1.4-1.5-4.2-1.5-4.2-1.5s-15.5-26.8-40.6-19.4c-25,7.4-36.7,58.9-36.7,58.9s-1.8-24.6-13.8-36.5
	c-16.9-17.9-26.1,0-26.1,0s8.5-30.5-6.7-47.7c-15.2-17.1-21.9,8.9-21.9,8.9s-3.2-3.7-7.4-3.7s-8.1,8.2-8.1,8.2s0.4-5.2-3.9-8.2
	c-4.2-3-7.1,0-7.1,0s12.7-50.7-12.3-66.3C563.7,21.2,557,54,555.2,64.4c-0.4-2.2-1.4-5.2-3.2-8.2c-3.5-5.2-4.6-3.7-4.6-3.7
	s3.5-29.8-6-38.7c-9.5-8.9-14.8,8.2-14.8,8.2s-10.9-7.4-20.1,10.4c-9.2,17.9-7.4,41-7.4,41s-3.2,0-7.4,5.2s-4.9,12.7-4.9,12.7
	s-6-8.9-15.2-8.9c-9.2,0-15.9,8.9-15.9,8.9s-2.5-11.2-9.9-17.9c-7.4-6.7-14.1,0-14.1,0s9.2-44-16.6-67
	c-25.7-23.1-44.4,24.6-44.4,24.6s-3.2,0-6.7,1.5c-3.2,1.5-5.3,6.7-5.3,6.7s-8.1-24.6-24-17.9c-15.9,6.7-20.1,42.5-20.1,42.5
	s-9.9-37.2-43.4-29.1c-33.5,8.2-39.2,44.7-39.2,44.7s-4.2-10.4-14.1-5.2c-2.8,1.5-4.6,3.7-6.3,6.7c-3.2-15.6-9.5-36.5-21.9-32.8
	c-11.3,3-14.1,16.4-14.1,16.4s-1.8-5.2-4.2-5.2h-4.9c0,0-1.8-6.7-6-10.4c-4.2-3.7-8.5,0-8.5,0s-8.5-8.9-16.6,0s-10.9,30.5-10.9,30.5
	s-6-10.4-12.7-5.2c-6.7,5.2-6.7,20.9-6.7,20.9s-1.8-3.7-6-1.5c-4.2,1.5-4.9,5.2-4.9,5.2s-2.5-17.1-9.9-20.9s-15.2,1.5-15.2,1.5
	s-6-37.2-39.2-44.7c-13.4-3-23.3,1.5-30,7.4V200h1000V74.8c-3.2,1.5-5.6,3-5.6,3S976,18.2,937.6,18.2z"/>
</svg>
