<?xml version="1.0" encoding="utf-8"?>
<!-- Generator: Adobe Illustrator 23.0.6, SVG Export Plug-In . SVG Version: 6.00 Build 0)  -->
<svg version="1.1" id="Layer_1" xmlns="http://www.w3.org/2000/svg" xmlns:xlink="http://www.w3.org/1999/xlink" x="0px" y="0px"
	 viewBox="0 0 1000 200" style="enable-background:new 0 0 1000 200;" xml:space="preserve">
<path d="M997.2,15.2c-7.1,28.8-7.8,50-6.3,81.8c1.1,25,7.1,64.4,1.4,87.9c-4.9,19.7-14.1,18.9-17.6-1.5c-4.2-25.8,1.1-57.6,1.8-84.1
	c1.1-32.6-10.2-52.3-26.1-43.9c-10.9,5.3-14.5,25-15.2,47c-0.7,15.2,4.2,60.6-0.4,72.7c-10.9,32.6-8.8-34.1-8.8-39.4
	c0.4-30.3-0.4-72.7-14.5-87.9c-15.9-17.4-21.5,7.6-19.4,37.9c0.7,10.6,5.3,77.3-9.5,52.3c-8.8-14.4,1.4-56.8-3.2-78
	c-2.8-13.6-9.2-31.8-16.9-31.1c-8.5,0.8-9.5,16.7-14.1,28c-11.6,28.8-7.8-9.1-16.9-20.5c-19.4-23.5-7.1,42.4-10.2,55.3
	c-4.9,18.2-10.9,4.5-11.6-9.8c-0.4-11.4,1.8-23.5,1.4-34.8c-1.1-32.6-10.2-40.2-18.3-9.1c-13.1,50.8-9.9-14.4-22.9-3
	c-10.6,8.3-3.2,69.7-2.1,84.1c2.5,31.1-7.8,39.4-9.5,6.1c-1.4-27.3,9.9-77.3,2.8-101.5c-7.4-25-23.6-0.8-27.9,18.2
	c-7.4,31.8-1.4,65.9,0,99.2c0.7,15.2-2.8,67.4-13.4,36.4c-10.9-32.6,8.8-87.9,0.7-123.5c-3.9-16.7-20.5-26.5-25.4-7.6
	c-2.8,10.6,3.5,25.8,1.1,36.4s-7.8,9.1-9.9-2.3c-2.8-15.9,7.8-36.4-0.4-49.2c-4.6-6.8-12.3,2.3-17.3,3.8c-8.5-0.8-11.6,0-15.9,15.2
	c-2.5,9.1-1.4,22.7-8.1,15.9c-6.7-6.1-6-32.6-14.5-37.1c-7.4-4.5-14.1,9.8-18,22c-3.2,10.6-4.6,22.7-4.6,34.8
	c0,14.4,4.9,31.8,1.1,45.5c-8.5,31.8-14.8-16.7-13.4-33.3c1.8-22,7.1-58.3-9.5-56.8c-18.3,2.3-21.5,43.9-22.6,74.2
	c-0.4,9.8,5.3,78.8-7.1,63.6c-6.3-7.6-1.8-56.8-2.1-68.9c-0.4-26.5-5.6-62.9-22.2-53.8c-26.8,14.4,7.4,137.9-16.9,141.7
	c-13.1,2.3-8.1-47-7.1-61.4c1.8-23.5,1.8-86.4-19.4-64.4c-7.8,8.3-3.5,17.4-4.6,32.6c-0.7,13.6-4.6,24.2-8.1,6.1
	c-3.9-18.9,2.8-50.8-13.8-50c-28.2,0.8-2.5,124.2-16.9,119.7c-9.9-3-3.5-70.5-4.6-85.6c-2.1-26.5-12.3-59.1-27.5-52.3
	c-15.5,6.8-4.9,49.2-4.9,68.9c0,23.5-12,44.7-15.5,12.9c-1.8-16.7,3.2-33.3,2.1-50c-1.1-14.4-5.3-31.1-11.3-39.4
	c-18.7-25.8-17.3,39.4-28.6,34.1c-4.9-2.3-10.6-61.4-21.5-31.1c-2.5,6.8,7.1,78-7.8,60.6c-7.1-8.3-0.4-50.8-2.5-67.4
	c-6.3-47-16.6,17.4-21.5,23.5C291,67.4,285,7.6,279,50c-1.8,12.9-1.4,28-0.7,40.9c0.7,12.1,5.3,34.8,3.5,46.2
	c-2.1,13.6-6,12.9-9.2,2.3c-3.5-12.1-1.4-34.1-0.7-47c1.1-18.9,8.5-63.6-0.7-78c-10.9-15.9-24,15.9-27.2,34.1
	c-5.3,32.6,1.1,65.9,1.8,98.5c0.4,24.2-10.6,56.8-15.2,18.2c-2.1-18.2,0.7-38.6,2.1-56.1c1.4-17.4,4.2-45.5-0.4-61.4
	c-4.2-14.4-20.5-20.5-24.7-3.8c-3.2,12.1,4.2,39.4-2.1,42.4c-8.5,4.5-7.1-17.4-6.3-25.8c1.1-11.4,3.9-24.2-1.4-32.6
	c-4.2-6.8-16.6,2.3-20.8,3.8c-8.5,3.8-8.8,10.6-12.7,25c-4.2,15.9-4.9,12.9-10.6-0.8c-4.6-11.4-6-27.3-14.1-28
	c-6.3-0.8-12,12.9-14.8,22.7c-4.9,16.7-4.6,31.1-3.5,49.2c0.7,10.6,3.5,28.8-1.8,37.1c-13.8,22-11.3-34.8-10.2-47.7
	c2.8-29.5-1.4-61.4-19-42.4c-13.4,14.4-14.5,50.8-14.5,79.5c0,12.1,4.2,43.9-0.4,52.3c-2.8,5.3-6.3,2.3-8.5-3.8
	c-3.9-11.4,0.4-50.8,0-64.4c-0.4-26.5-3.2-52.3-17.3-56.1C37,50,26.1,63.6,25.7,91.7c-0.4,29.5,7.1,62.1,2.1,90.9
	c-3.2,18.2-10.2,22-16.2,6.8c-8.5-21.2-1.4-68.2,0-93.2c1.4-31.8,0.7-53-6.3-81.8C3.9,10.6,2.1,5.3,0,0v200h1000V6.1
	C998.9,9.1,997.9,12.1,997.2,15.2z"/>
</svg>
