<?xml version="1.0" encoding="utf-8"?>
<!-- Generator: Adobe Illustrator 23.0.6, SVG Export Plug-In . SVG Version: 6.00 Build 0)  -->
<svg version="1.1" id="Layer_1" xmlns="http://www.w3.org/2000/svg" xmlns:xlink="http://www.w3.org/1999/xlink" x="0px" y="0px"
	 viewBox="0 0 1000 200" style="enable-background:new 0 0 1000 200;" xml:space="preserve">
<style type="text/css">
	.st0{opacity:0.33;enable-background:new    ;}
	.st1{opacity:0.66;enable-background:new    ;}
</style>
<path class="st0" d="M473,134.6c-203.9,176.6-263.1-68-320.3,0C66,238.2,0,119.4,0,119.4V0h1000v119.4c0,0-62.1,52.2-94.9,58.6
	c-32.8,6.6-62.8-24.6-75.8-44.2C806,99.2,745.3,17.4,694.9,9.4S492.4,118,473,134.6z"/>
<path class="st1" d="M734,134.6c-45.5,0-77.2-46.4-129.1-78.2c-28.6-17.4-150.3-20.2-254,78.2s-91.7-68.8-149.2,0
	c-86,102-201.7-55-201.7-55V0h1000v73c0,0-28.2-37-92.1-37C810.2,36.2,775.7,134.6,734,134.6z"/>
<path d="M766.1,57.8c-200-115-266,131-395.1,39c-129-93.2-129-86-186.2-55.6C128,71.6,132.3,89.8,89.9,105C28.6,127.4,0,0,0,0h1000
	c0,0-9.9,81.8-83.6,96.2S829.6,94,766.1,57.8z"/>
</svg>
