<?xml version="1.0" encoding="utf-8"?>
<!-- Generator: Adobe Illustrator 23.0.6, SVG Export Plug-In . SVG Version: 6.00 Build 0)  -->
<svg version="1.1" id="Layer_1" xmlns="http://www.w3.org/2000/svg" xmlns:xlink="http://www.w3.org/1999/xlink" x="0px" y="0px"
	 viewBox="0 0 1000 200" style="enable-background:new 0 0 1000 200;" xml:space="preserve">
<path d="M0,0v10.1c2.1,5.1,3.9,10.1,4.9,14.4c7.1,27.4,7.8,47.6,6.4,77.9c-1.1,23.8-8.5,67.8,0,88.8c6,14.4,13.1,10.1,16.2-6.5
	c4.9-27.4-2.5-59.2-2.1-86.6c0.4-26.7,11.3-39.7,24.3-35.4c14.1,4.3,16.9,28.9,17.3,53.4c0.4,13-3.9,50.5,0,61.3
	c2.1,5.8,5.6,8.7,8.5,3.6c4.9-7.9,0.4-39,0.4-49.8c0.4-26.7,1.1-62.1,14.5-75.8c17.6-18,21.9,11.5,19.1,40.4
	c-1.4,12.3-3.5,66.4,10.2,45.5c5.3-7.9,2.5-25.3,1.8-35.4c-1.4-17.3-1.4-31,3.5-46.9c3.2-10.1,8.5-22.4,14.8-21.7
	c8.5,0.7,9.5,15.9,14.1,26.7c5.3,13,6.4,15.9,10.6,0.7c3.9-13.7,4.2-20.2,12.7-23.8c4.6-2.2,16.9-10.1,20.8-3.6
	c5.3,7.9,2.1,20.2,1.4,31c-0.7,7.9-2.1,28.9,6.4,24.5c6-2.9-1.1-29.6,2.1-40.4c4.6-15.9,20.5-10.1,24.7,3.6
	c4.6,15.2,1.8,41.9,0.4,58.5s-4.2,36.1-2.1,53.4c4.6,36.8,15.5,6.5,15.2-17.3c-0.4-31.8-7.1-63.5-1.8-93.8
	c3.2-17.3,16.2-47.6,27.2-32.5c9.5,13,1.8,56.3,0.7,74.3c-0.7,12.3-2.8,33.2,0.7,44.7c3.2,10.1,7.1,10.8,9.2-2.2
	c1.8-10.8-3.2-32.5-3.5-44c-0.7-12.3-1.4-26.7,0.7-39c6.4-40.4,12.4,17.3,22.2,4.3c4.9-6.5,15.2-67.8,21.5-22.4
	c2.1,15.9-4.6,56.3,2.5,64.2c14.8,16.6,5.3-51.2,7.8-57.7C344,18,349.7,74.3,354.6,76.5c10.9,5.1,9.9-57,28.6-32.5
	c6,7.9,10.2,23.8,11.3,37.5c1.4,15.9-3.5,32.5-2.1,47.6c3.5,31,15.5,10.8,15.5-12.3c0-19.5-10.6-59.9,4.9-65.7
	c15.5-6.5,25.8,25.3,27.5,49.8c1.1,14.4-5.3,78.7,4.6,81.6c14.5,4.3-11.3-113.3,16.9-114c16.6-0.7,9.9,29.6,13.8,47.6
	c3.5,17.3,7.4,7.2,8.1-5.8c1.1-13.7-3.2-23.1,4.6-31c20.8-20.9,20.8,39,19.4,61.3c-1.1,14.4-6,60.6,7.1,58.5
	c24.3-3.6-9.9-122,16.9-135c16.6-8.7,21.5,26,22.2,51.2c0.4,12.3-4.2,58.5,2.1,65.7c12.4,14.4,6.7-50.5,7.1-60.6
	c0.7-28.9,4.2-69.3,22.6-70.7c16.6-1.4,11.3,33.2,9.5,54.1c-1.4,15.9,4.6,62.1,13.4,31.8c3.9-13.7-1.1-29.6-1.1-43.3
	c0-12.3,1.4-23.1,4.6-33.2c3.5-11.5,10.2-25.3,18-20.9c8.8,4.3,8.1,29.6,14.5,35.4c6.7,5.8,5.6-6.5,8.1-15.2
	c4.2-15.2,7.4-15.2,15.5-17.3c4.9-1.4,12.7-10.8,17.3-3.6c8.1,12.3-2.5,31.8,0.4,46.9c2.1,10.8,7.4,12.3,9.9,2.2
	c2.5-10.1-3.9-24.5-1.1-34.6c4.9-18,21.9-8.7,25.4,7.2c8.1,34.6-11.6,86.6-0.7,117.6c10.6,29.6,13.8-20.2,13.4-34.6
	c-1.4-31-7.4-64.2,0-94.5c4.6-18,20.8-41.1,27.9-17.3c7.1,23.1-4.6,70.7-2.8,96.7c1.8,31.8,12.4,23.8,9.5-5.8
	c-1.4-13.7-8.5-72.2,2.1-80.1c13.1-10.1,9.9,52,22.9,2.9c7.8-29.6,17.3-22.4,18.3,8.7c0.4,10.8-2.1,22.4-1.4,33.2
	c0.7,13.7,6.4,26.7,11.6,9.4c3.5-11.5-9.2-75.1,10.2-52.7c9.2,10.8,5.6,46.9,16.9,19.5c4.6-10.8,6-26,14.1-26.7
	c7.8-0.7,14.1,16.6,16.9,29.6c4.6,20.9-5.3,60.6,3.2,74.3c14.8,23.8,10.6-39.7,9.5-49.8c-2.1-28.1,3.5-52,19.4-36.1
	c14.5,15.2,15.2,55.6,14.5,83.7c0,5.8-2.1,68.6,8.8,37.5c4.2-12.3-0.4-55.6,0.4-69.3c1.1-20.9,4.2-39.7,15.2-44.7
	c15.9-7.2,27.2,10.8,26.1,41.9c-0.7,25.3-6.4,55.6-1.8,80.1c3.5,19.5,12.7,20.2,17.6,1.4c5.6-22.4,0-59.9-1.4-83.7
	c-1.4-30.3-0.7-50.5,6.4-77.9c0,0-0.4,0.7-0.4,1.4c-0.7,2.9-1.1,5.1-1.4,5.8v0.7c-0.4,1.4-0.4,1.4,0,0v-0.7l1.4-5.8
	c0-0.7,0.4-0.7,0.4-1.4c0.7-2.9,1.8-5.8,2.8-8.7V0H0z"/>
</svg>
