<?xml version="1.0" encoding="utf-8"?>
<!-- Generator: Adobe Illustrator 23.0.6, SVG Export Plug-In . SVG Version: 6.00 Build 0)  -->
<svg version="1.1" id="waves-pattern" xmlns="http://www.w3.org/2000/svg" xmlns:xlink="http://www.w3.org/1999/xlink" x="0px"
	 y="0px" viewBox="0 0 1000 200" style="enable-background:new 0 0 1000 200;" xml:space="preserve">
<path d="M421.9,13.1c22.6-5.1,51.5,0.8,75.5,10.7c23.6,9.9,70.9,47.5,100.5,72.1c75.8,65,133.7,89.9,192.6,100.4
	c23.6,4.2,48.7,7.1,103.4-5.1c54.7-12.1,106.2-51.7,106.2-51.7V0H0v61.2c0,0,72,65.9,158.4,61.6c39.2-1.4,92.8-13.5,134-45.3
	c21.2-16.4,52.2-36.8,79.7-48.9C399.3,16,411.6,15.2,421.9,13.1z"/>
</svg>
