<?xml version="1.0" encoding="utf-8"?>
<!-- Generator: Adobe Illustrator 23.0.6, SVG Export Plug-In . SVG Version: 6.00 Build 0)  -->
<svg version="1.1" id="Layer_1" xmlns="http://www.w3.org/2000/svg" xmlns:xlink="http://www.w3.org/1999/xlink" x="0px" y="0px"
	 viewBox="0 0 1000 200" style="enable-background:new 0 0 1000 200;" xml:space="preserve">
<g>
	<path d="M1000,71.3c0,0-25.7,31.6-49.4,33.8c-24,2.2-44.4,0-73.7-11C837,79.3,760.1,19.8,719.2,52.2
		c-40.9,32.3-42.7,33.8-63.5,54.4c-23.3,23.5-70.5,70.5-129.1,68.3c-62.4-2.2-175.7-122-222.2-116.1c-4.9,0.7-23.3,5.9-37,14.7
		c-13.4,8.8-33.2,27.9-60,34.5c-11.3,2.9-29.3,8.1-50.1,6.6c-5.3-0.7-22.2-2.9-42.3-11.8S76.2,80.1,59.3,75.7
		C22.9,67.6,0,79.3,0,79.3V0h1000V71.3z M919.9,83c-2.5-7.3-7.1-2.9-15.2-2.9s-21.5-8.8-20.5-8.1s10.9,11,21.2,14
		C916,89.6,922,90.4,919.9,83z M855,63.2c0,0-8.5-1.5-19.8-6.6C824,50.7,798.9,36,782,30.9c-28.9-8.1-55.7,0-53.3,0.7
		c2.8,0.7,33.9-4.4,62.1,8.1c11.6,5.1,32.8,16.2,43.7,19.8C846.2,63.9,855,63.2,855,63.2z M653.3,62.4c6-5.1-46.9,34.5-65.3,44.8
		c-7.4,4.4-21.9,11.8-35.3,14.7c-13.8,2.9-31.4,2.9-31,3.7c0,1.5,20.5,5.9,39.5,0s18.3-8.1,26.8-11.8
		C601.4,108,647.3,67.6,653.3,62.4z M702.3,50.7c0.7,0-2.8-2.9-16.9,8.1c-14.1,11-23.6,25.7-24.3,27.2c-0.7,0.7,12.3-13.2,23.3-22
		C694.9,55.1,701.9,50.7,702.3,50.7z M998.2,44.1c-0.4,0.7-6.7,8.1-16.9,18.4S957,83,957.7,82.3c0.7,0,12.3-4.4,26.1-18.4
		S998.6,43.3,998.2,44.1z M110.4,85.2c0.4-1.5-6.7-1.5-15.9-8.8c-9.2-7.3-19-11.8-27.5-14.7c-14.1-5.9-41.3,0.7-39.9,1.5
		c1.1,0.7,28.9-2.2,44.1,5.1C79,72,79.7,72,91.4,80.1S110.1,87.4,110.4,85.2z M257.5,67.6c1.4-0.7,12.3-11.8,29.6-19.1
		c17.3-8.1,31.4-3.7,31.4-5.9s-3.5-6.6-21.9-2.2S256.1,68.3,257.5,67.6z M252.6,49.2c0.7,0.7,12-9.6,20.1-12.5
		c8.1-2.2,6.7-3.7,6.7-4.4c0-0.7-3.9-1.5-9.5,1.5C263.8,37.5,251.9,48.5,252.6,49.2z M330.2,32.3c0.4,1.5,12.3,5.9,19.8,13.2
		s6.3,4.4,6.7,3.7c0.4-0.7-2.8-5.9-8.5-9.6C342.5,35.3,329.8,30.9,330.2,32.3z M230.7,81.6c-0.4,2.2,1.1,3.7,6.7-1.5
		c5.6-5.1,9.2-9.6,7.8-8.8c-1.4,0.7-3.2,2.9-8.8,5.9C230.3,80.1,231,79.3,230.7,81.6z M121.7,91.1c-0.7,0,7.4,5.9,11.6,6.6
		s7.1,0.7,7.1-1.5c0-2.2-0.4-3.7-5.6-2.9C129.1,94,122.4,91.1,121.7,91.1z M536.9,155c-0.4,0.7-8.5-2.2-26.5-2.2
		c-17.6,0-48-17.6-60.7-25.7s35.3,28.7,58.2,30.1C530.9,158.7,537.2,154.3,536.9,155z"/>
	<path d="M951,132.2c-0.4-0.7-16.2,2.2-25.4,0c-25.7-5.1-60-23.5-58.6-21.3c1.4,2.2,48.3,22.8,60,24.2
		C944.3,138.1,951.3,132.2,951,132.2z"/>
	<path d="M802.1,72c-0.7-0.7-15.9-7.3-33.5-8.8c-17.6-1.5-44.8,4.4-43.4,3.7c1.1-0.7,20.8-13.2,46.9-8.8
		C798.2,62.4,802.8,72.7,802.1,72z"/>
	<path d="M721.3,98.4c-0.4-0.7,7.1-7.3,11.3-8.1c4.2-0.7,7.1,0,7.1,2.2s-0.4,3.7-5.6,2.9C728,94.8,721.7,99.2,721.3,98.4z"/>
	<path d="M709,77.9c0-0.7-15.5,8.8-22.2,16.2c-6.7,6.6-21.9,22.8-21.5,22.8c0.4,0.7,14.8-11.8,22.2-19.1
		C694.9,90.4,709,78.6,709,77.9z"/>
	<path d="M545,196.2c-0.4-0.7-16.2,2.2-25.4,0c-25.7-5.1-60-23.5-58.6-21.3c1.4,2.2,48.3,22.8,60,24.2
		C538.3,202,545.3,196.9,545,196.2z"/>
	<path d="M147.8,141.8c0,0,4.2-2.2,10.2-0.7s20.5,6.6,28.9,5.1c14.8-2.9,26.1-19.8,24.7-19.1c-1.4,0-15.2,16.2-30.3,14
		c-6.3-0.7-18-3.7-23.6-2.9C152,138.9,147.8,141.8,147.8,141.8z"/>
	<path d="M266.3,92.6c0.7,0.7,7.1-5.9,15.2-8.1c8.1-1.5,7.4-2.2,7.4-3.7c0-0.7-6.3-2.9-12,0C271.3,84.5,265.6,91.8,266.3,92.6z"/>
	<path d="M55,97c0-0.7,15.2,0,23.6,3.7s17.6,14,17.6,14.7c0,0.7-9.5-5.9-18-10.3C70.2,100.7,55.4,97.7,55,97z"/>
</g>
</svg>
