<?xml version="1.0" encoding="utf-8"?>
<!-- Generator: Adobe Illustrator 23.0.6, SVG Export Plug-In . SVG Version: 6.00 Build 0)  -->
<svg version="1.1" id="Layer_1" xmlns="http://www.w3.org/2000/svg" xmlns:xlink="http://www.w3.org/1999/xlink" x="0px" y="0px"
	 viewBox="0 0 1000 200" style="enable-background:new 0 0 1000 200;" xml:space="preserve">
<path d="M790.5,186.1c-59.3-10.7-116.8-36.4-192.6-101C568.3,59.4,521,22.5,497.4,12.6c-23.6-9.9-52.6-15.8-75.5-10.7
	c-10.2,2.2-22.6,2.8-50.1,14.9c-27.2,12.7-58.2,33.5-79.4,49.9c-41.3,32.1-94.9,44.2-134,45.6C72,115.6,0,50.1,0,50.1V200h1000
	v-70.1c0,0-51.5,39.2-106.2,51.9C839.5,193.9,814.1,190.3,790.5,186.1z"/>
</svg>
