<?xml version="1.0" encoding="utf-8"?>
<!-- Generator: Adobe Illustrator 23.0.6, SVG Export Plug-In . SVG Version: 6.00 Build 0)  -->
<svg version="1.1" id="Layer_1" xmlns="http://www.w3.org/2000/svg" xmlns:xlink="http://www.w3.org/1999/xlink" x="0px" y="0px"
	 viewBox="0 0 1000 200" style="enable-background:new 0 0 1000 200;" xml:space="preserve">
<path d="M3.1,13.8l3,182.8L9.3,13.8l3,182.8l3.1-182.8l3.1,182.8l3.1-182.8L24.6,200h0.1l3.2-186.2l3,182.8l3.1-182.8L37,196.6
	l3.1-182.8l3.1,182.8l3.1-182.8l3,182.8l3.1-182.8L55.4,200h0.1l3.1-186.2l3.1,182.8l3.1-182.8l3,182.8l3.1-182.8L74,196.6
	l3.1-182.8L80.2,200h0.1l3.1-186.2l3,182.8l3.2-182.8l3,182.8l3.1-182.8l3.1,182.8l3.1-182.8l3,182.8L108,13.8l3,186.2h0.1
	l3.1-186.2l3.1,182.8l3.1-182.8l3.1,182.8l3.1-182.8l3,182.8l3.1-182.8l3.1,186.2h0.1l3.1-186.2l3.1,182.8l3.1-182.8l3,182.8
	l3.1-182.8l3.1,182.8l3.1-182.8l3.1,182.8l3.1-182.8l3.1,186.2h0.1l3.2-186.2l3,182.8l3.1-182.8l3.1,182.8l3.1-182.8l3,182.8
	l3.2-182.8l3,186.2h0.1l3.1-186.2l3.1,182.8l3.1-182.8l3.1,182.8l3.1-182.8l3,182.8l3.1-182.8l3.1,182.8l3.1-182.8l3.1,186.2h0.1
	l3.2-186.2l3,182.8l3.1-182.8l3.1,182.8l3.1-182.8l3.1,182.8l3.1-182.8l3.1,186.2h0.1L250,13.8l3.1,182.8l3.1-182.8l3.1,182.8
	l3.1-182.8l3,182.8l3.2-182.8l3,182.8l3.1-182.8l3.1,186.2h0.1l3.1-186.2l3.1,182.8l3.1-182.8l3,182.8l3.1-182.8l3.1,182.8
	l3.1-182.8l3.1,186.2h0.1l3.2-186.2l3,182.8l3.1-182.8l3.1,182.8l3.1-182.8l3.1,182.8l3.1-182.8l3,182.8l3.1-182.8l3.1,186.2h0.1
	l3.1-186.2l3.1,182.8l3.1-182.8l3,182.8l3.2-182.8l3,182.8l3.1-182.8L358,200h0.1l3.1-186.2l3.1,182.8l3.1-182.8l3,182.8l3.1-182.8
	l3.1,182.8l3.1-182.8l3.1,182.8l3.1-182.8l3,186.2h0.1L392,13.8l3.1,182.8l3.1-182.8l3.1,182.8l3.1-182.8l3,182.8l3.1-182.8
	l3.1,186.2h0.1l3.1-186.2l3.1,182.8l3.1-182.8l3,182.8l3.2-182.8l3,182.8l3.1-182.8l3.1,182.8l3.1-182.8l3.1,186.2h0.1l3.2-186.2
	l3,182.8l3.1-182.8l3.1,182.8l3.1-182.8l3.1,182.8l3.1-182.8l3,186.2h0.1l3.1-186.2l3.1,182.8l3.1-182.8l3.1,182.8l3.1-182.8
	l3,182.8l3.1-182.8l3.1,182.8l3.1-182.8l3.1,186.2h0.1l3.1-186.2l3,182.8l3.2-182.8l3,182.8l3.1-182.8l3.1,182.8l3.1-182.8
	l3.1,186.2h0.1l3.2-186.2l3,182.8L534,13.8l3.1,182.8l3.1-182.8l3.1,182.8l3.1-182.8l3,182.8l3.1-182.8l3.1,186.2h0.1l3.1-186.2
	l3.1,182.8l3.1-182.8l3,182.8L571,13.8l3.1,182.8l3.1-182.8l3.1,186.2h0.1l3.1-186.2l3,182.8l3.2-182.8l3,182.8l3.1-182.8l3.1,182.8
	l3.1-182.8l3.1,182.8L608,13.8l3,186.2h0.1l3.1-186.2l3.1,182.8l3.1-182.8l3.1,182.8l3.1-182.8l3,182.8l3.1-182.8l3.1,186.2h0.1
	L639,13.8l3.1,182.8l3.1-182.8l3,182.8l3.1-182.8l3.1,182.8l3.1-182.8l3.1,182.8l3.1-182.8l3.1,186.2h0.1l3.2-186.2l3,182.8
	L676,13.8l3.1,182.8l3.1-182.8l3.1,182.8l3.1-182.8l3,186.2h0.1l3.1-186.2l3.1,182.8l3.1-182.8l3.1,182.8l3.1-182.8l3,182.8
	L713,13.8l3.1,182.8l3.1-182.8l3.1,186.2h0.1l3.1-186.2l3,182.8l3.1-182.8l3.1,182.8l3.1-182.8l3.1,182.8l3.1-182.8l3.1,186.2h0.1
	l3.2-186.2l3,182.8l3.1-182.8l3.1,182.8l3.1-182.8l3.1,182.8l3.1-182.8l3,182.8l3.1-182.8l3.1,186.2h0.1L781,13.8l3.1,182.8
	l3.1-182.8l3,182.8l3.1-182.8l3.1,182.8l3.1-182.8l3.1,186.2h0.1l3.1-186.2l3,182.8l3.1-182.8l3.1,182.8L818,13.8l3.1,182.8
	l3.1-182.8l3,182.8l3.2-182.8l3,186.2h0.1l3.1-186.2l3.1,182.8l3.1-182.8l3.1,182.8l3.1-182.8l3,182.8L855,13.8L858,200h0.1
	l3.1-186.2l3.1,182.8l3.1-182.8l3,182.8l3.1-182.8l3.1,182.8l3.1-182.8l3.1,182.8l3.1-182.8l3.1,186.2h0.1l3.1-186.2l3.1,182.8
	l3.1-182.8l3.1,182.8l3.1-182.8l3,182.8l3.2-182.8l3,186.2h0.1l3.1-186.2l3.1,182.8L923,13.8l3.1,182.8l3.1-182.8l3,182.8l3.1-182.8
	l3.1,182.8l3.1-182.8l3.1,186.2h0.1l3.2-186.2l3,182.8l3.1-182.8l3.1,182.8l3.1-182.8l3.1,182.8l3.1-182.8l3.1,186.2h0.1l3.1-186.2
	l3.1,182.8l3.1-182.8l3.1,182.8l3.1-182.8l3,182.8l3.2-182.8l3,182.8l3.1-182.8L1000,200V0H0v200L3.1,13.8z"/>
</svg>
